<?xml version="1.0" encoding="UTF-8" standalone="no"?>
<svg
   xmlns:dc="http://purl.org/dc/elements/1.1/"
   xmlns:cc="http://creativecommons.org/ns#"
   xmlns:rdf="http://www.w3.org/1999/02/22-rdf-syntax-ns#"
   xmlns:svg="http://www.w3.org/2000/svg"
   xmlns="http://www.w3.org/2000/svg"
   xmlns:sodipodi="http://sodipodi.sourceforge.net/DTD/sodipodi-0.dtd"
   xmlns:inkscape="http://www.inkscape.org/namespaces/inkscape"
   id="svg4157"
   version="1.1"
   viewBox="0 0 39.164193 13.229167"
   height="13.229167mm"
   width="39.164192mm"
   sodipodi:docname="logo-white.svg"
   inkscape:version="0.92.3 (2405546, 2018-03-11)">
  <sodipodi:namedview
     pagecolor="#ffffff"
     bordercolor="#666666"
     borderopacity="1"
     objecttolerance="10"
     gridtolerance="10"
     guidetolerance="10"
     inkscape:pageopacity="0"
     inkscape:pageshadow="2"
     inkscape:window-width="3840"
     inkscape:window-height="2004"
     id="namedview4758"
     showgrid="false"
     fit-margin-top="0"
     fit-margin-left="0"
     fit-margin-right="0"
     fit-margin-bottom="0"
     inkscape:zoom="1.6819304"
     inkscape:cx="438.09071"
     inkscape:cy="213.52005"
     inkscape:window-x="-16"
     inkscape:window-y="-16"
     inkscape:window-maximized="1"
     inkscape:current-layer="svg4157" />
  <defs
     id="defs4151" />
  <metadata
     id="metadata4154">
    <rdf:RDF>
      <cc:Work
         rdf:about="">
        <dc:format>image/svg+xml</dc:format>
        <dc:type
           rdf:resource="http://purl.org/dc/dcmitype/StillImage" />
        <dc:title></dc:title>
      </cc:Work>
    </rdf:RDF>
  </metadata>
  <g
     id="layer1"
     transform="matrix(0.19312997,0,0,0.19004511,-0.69655033,-21.607116)">
    <g
       id="g4125"
       transform="matrix(1.5802725,0,0,1.5802725,-5.0810865,-78.574844)">
      <path
         id="path4095"
         transform="matrix(0.26458333,0,0,0.26458333,0,81.1)"
         d="m 57.328125,153.33008 c -7.901342,0 -13.927717,1.91873 -18.082031,5.75586 -4.072857,3.77097 -6.109375,9.29495 -6.109375,16.57226 0,6.74806 3.502498,12.89981 10.507812,18.45703 l 9.041016,7.34375 c 3.258285,2.58014 5.498846,4.49887 6.720703,5.75586 1.303314,1.19084 2.36121,2.71205 3.175781,4.56446 0.814572,1.78625 1.222657,4.06904 1.222657,6.84765 0,2.11704 -0.366496,3.63825 -1.09961,4.56446 -0.733114,0.86004 -2.036642,1.29101 -3.910156,1.29101 -3.339743,0 -5.009766,-2.11749 -5.009766,-6.35156 V 207.51172 H 33.136719 v 8.33594 c 0,1.75481 0.09435,3.40471 0.273437,4.96093 l 24.394532,19.29297 c 0.768242,0.0274 1.527861,0.0606 2.333984,0.0606 8.715914,0 14.948284,-2.15094 18.695312,-6.45117 3.828486,-4.36639 5.742188,-10.75035 5.742188,-19.15235 0,-3.77097 -0.570538,-7.01215 -1.710938,-9.72461 -1.1404,-2.77861 -2.64797,-5.16176 -4.521484,-7.14648 -1.873514,-2.05088 -4.234938,-4.19987 -7.085938,-6.44922 l -12.21875,-9.52734 c -3.909942,-2.97709 -5.865234,-5.8542 -5.865234,-8.63282 0,-1.25699 0.408085,-2.24883 1.222656,-2.97656 0.814572,-0.72773 2.036873,-1.09179 3.666016,-1.09179 1.384771,0 2.442667,0.33061 3.175781,0.99218 0.814572,0.66158 1.222657,1.55501 1.222657,2.67969 l 0.121093,5.85352 h 21.382813 c 0,-8.66663 -2.076155,-15.01713 -6.230469,-19.05274 -4.154314,-4.10176 -10.957222,-6.15234 -20.40625,-6.15234 z m 32.982422,0.79297 v 62.41992 c 0,7.80658 2.078108,13.69462 6.232422,17.66406 4.235771,3.96945 10.670231,5.95508 19.304691,5.95508 8.63445,0 15.02928,-1.98563 19.18359,-5.95508 4.23577,-3.96944 6.35352,-9.85748 6.35352,-17.66406 v -62.41992 h -20.4043 v 61.72461 c 0,2.77861 -0.32686,4.92955 -0.97852,6.45117 -0.65165,1.45546 -2.03641,2.18359 -4.15429,2.18359 -2.11789,0 -3.50264,-0.76158 -4.1543,-2.2832 -0.65166,-1.52162 -0.97656,-3.63911 -0.97656,-6.35156 v -61.72461 z m 59.212893,0 v 85.24414 h 28.46875 c 8.71591,0 14.74424,-2.31429 18.08398,-6.94531 3.33974,-4.69718 5.00977,-11.57902 5.00977,-20.64258 0,-5.55723 -0.89545,-10.02246 -2.6875,-13.39649 -1.79206,-3.37403 -4.88843,-5.52497 -9.28711,-6.45117 7.16823,-1.58778 10.75195,-6.44857 10.75195,-14.58594 v -3.77148 c 0,-6.88037 -1.75125,-11.84348 -5.2539,-14.88672 -3.4212,-3.04324 -8.96022,-4.56445 -16.61719,-4.56445 z m 57.24609,0 v 62.41992 c 0,7.80658 2.07616,13.69462 6.23047,17.66406 4.23577,3.96945 10.67218,5.95508 19.30664,5.95508 8.63446,0 15.02928,-1.98563 19.18359,-5.95508 4.23578,-3.96944 6.35352,-9.85748 6.35352,-17.66406 V 154.12305 H 237.4375 v 61.72461 c 0,2.77861 -0.32491,4.92955 -0.97656,6.45117 -0.65166,1.45546 -2.03641,2.18359 -4.1543,2.18359 -2.11788,0 -3.50264,-0.76158 -4.1543,-2.2832 -0.65165,-1.52162 -0.97851,-3.63911 -0.97851,-6.35156 v -61.72461 z m 59.21289,0 v 85.24414 h 21.25977 V 200.4668 c 3.01391,0 5.09007,0.33061 6.23047,0.99218 1.1404,0.66158 1.71093,2.18279 1.71093,4.56446 v 33.34375 h 20.52735 l 0.24414,-32.25196 c 0,-3.50634 -0.73299,-6.28505 -2.19922,-8.33593 -1.38477,-2.05088 -3.66497,-3.33988 -6.8418,-3.86914 3.82849,-1.05852 6.51677,-2.9438 8.06446,-5.65625 1.54768,-2.71246 2.32031,-6.48496 2.32031,-11.31446 0,-5.29259 -0.48736,-9.62597 -1.46485,-13 -0.97748,-3.44018 -2.89314,-6.08509 -5.74414,-7.9375 -2.76954,-1.91856 -6.71976,-2.8789 -11.85156,-2.8789 z m 58.22852,0 v 85.24414 h 28.46875 c 8.71591,0 14.74424,-2.31429 18.08398,-6.94531 3.33974,-4.69718 5.00977,-11.57902 5.00977,-20.64258 0,-5.55723 -0.89545,-10.02246 -2.6875,-13.39649 -1.79206,-3.37403 -4.88843,-5.52497 -9.28711,-6.45117 7.16823,-1.58778 10.75195,-6.44857 10.75195,-14.58594 v -3.77148 c 0,-6.88037 -1.75125,-11.84348 -5.2539,-14.88672 -3.4212,-3.04324 -8.96022,-4.56445 -16.61719,-4.56445 z m 65.79883,0 -10.14063,85.24414 h 20.4043 l 1.22265,-13.79297 h 12.70703 l 1.46485,13.79297 h 19.91797 l -10.01953,-85.24414 z m 51.85351,0 v 85.24414 h 20.52539 v -42.67188 l 9.98633,40.54297 21.04883,-16.64648 v -66.46875 h -20.28125 v 40.78711 l -9.6543,-40.78711 z m -271.8125,13.09961 h 4.39844 c 3.01391,0 4.52148,1.38935 4.52148,4.16796 v 8.53516 c 0,1.98472 -0.32686,3.53939 -0.97851,4.66406 -0.65166,1.05852 -1.87201,1.58789 -3.66407,1.58789 h -4.27734 z m 174.6875,0 h 4.39844 c 3.01391,0 4.52148,1.38935 4.52148,4.16796 v 8.53516 c 0,1.98472 -0.32686,3.53939 -0.97851,4.66406 -0.65166,1.05852 -1.87396,1.58789 -3.66602,1.58789 h -4.27539 z m 62.25586,1.38867 h 0.97656 l 4.64258,43.36719 h -9.5293 z m -119.63086,1.29101 h 4.88867 c 1.22186,0 2.15889,0.23221 2.81055,0.69532 0.65166,0.39694 1.09938,1.15657 1.34375,2.28125 0.24437,1.12467 0.36719,2.81119 0.36719,5.06054 0,5.16028 -1.46794,7.74219 -4.40039,7.74219 h -5.00977 z m -117.3125,29.67188 h 3.91016 c 2.36225,0 3.99069,0.66123 4.88672,1.98437 0.97748,1.32315 1.46679,3.27533 1.46679,5.85547 v 10.61719 c 0,4.23408 -2.72987,6.35156 -8.1875,6.35156 l -2.07617,-0.0996 z m 174.6875,0 h 3.91016 c 2.36225,0 3.99069,0.66123 4.88672,1.98437 0.97748,1.32315 1.46679,3.27533 1.46679,5.85547 v 10.61719 c 0,4.23408 -2.72987,6.35156 -8.1875,6.35156 l -2.07617,-0.0996 z"
         style="font-style:normal;font-weight:normal;font-size:29.13450432px;line-height:1.25;font-family:sans-serif;letter-spacing:0px;word-spacing:0px;fill:#000000;fill-opacity:1;stroke:none;stroke-width:2.75286651"
         inkscape:connector-curvature="0" />
      <g
         aria-label="SNOW PLOW"
         transform="scale(1.2432023,0.80437432)"
         style="font-style:normal;font-weight:normal;font-size:19.26226044px;line-height:1.25;font-family:sans-serif;letter-spacing:0px;word-spacing:0px;fill:#000000;fill-opacity:1;stroke:none;stroke-width:0.48155648"
         id="g4113">
        <path
           d="m 17.661502,205.78068 q -2.253684,0 -3.255322,-1.11721 -1.001637,-1.11721 -1.001637,-3.60204 v -1.61803 h 3.255322 v 2.06106 q 0,1.23279 0.789752,1.23279 0.443032,0 0.616393,-0.25041 0.17336,-0.26967 0.17336,-0.88607 0,-0.80901 -0.192622,-1.32909 -0.192623,-0.53934 -0.500819,-0.88607 -0.288934,-0.36598 -1.059425,-1.11721 l -1.425407,-1.4254 q -1.656554,-1.61803 -1.656554,-3.58278 0,-2.11885 0.963113,-3.2168 0.982375,-1.11721 2.850814,-1.11721 2.234423,0 3.216798,1.19426 0.982375,1.175 0.982375,3.69835 h -3.370895 l -0.01926,-1.13647 q 0,-0.32746 -0.192622,-0.52008 -0.173361,-0.19263 -0.500819,-0.19263 -0.385245,0 -0.577868,0.21189 -0.192623,0.21188 -0.192623,0.57787 0,0.80901 0.924589,1.67581 l 1.926226,1.84918 q 0.674179,0.65492 1.117211,1.25205 0.443032,0.57787 0.712704,1.38688 0.269671,0.78975 0.269671,1.8877 0,2.44631 -0.905326,3.71762 -0.886064,1.25204 -2.947126,1.25204 z"
           style="font-style:normal;font-variant:normal;font-weight:normal;font-stretch:normal;font-family:Anton;-inkscape-font-specification:Anton;fill:#ffffff;stroke:#000000;stroke-width:0.48155648"
           id="path4097"
           inkscape:connector-curvature="0" />
        <path
           d="m 22.6107,205.62659 v -16.54628 h 3.40942 l 1.521718,7.91678 v -7.91678 h 3.197535 v 16.54628 h -3.236059 l -1.656555,-8.28278 v 8.28278 z"
           style="font-style:normal;font-variant:normal;font-weight:normal;font-stretch:normal;font-family:Anton;-inkscape-font-specification:Anton;fill:#ffffff;stroke:#000000;stroke-width:0.48155648"
           id="path4099"
           inkscape:connector-curvature="0" />
        <path
           d="m 36.152971,205.78068 q -2.003275,0 -3.043437,-1.21352 -1.040163,-1.23278 -1.040163,-3.44794 v -7.87827 q 0,-2.13811 1.040163,-3.21679 1.040162,-1.09795 3.043437,-1.09795 2.003275,0 3.043437,1.09795 1.040162,1.07868 1.040162,3.21679 v 7.87827 q 0,2.23442 -1.040162,3.44794 -1.040162,1.21352 -3.043437,1.21352 z m 0,-3.04343 q 0.443032,0 0.59713,-0.38525 0.154098,-0.38524 0.154098,-1.07868 v -8.09015 q 0,-0.53935 -0.154098,-0.86681 -0.134836,-0.34672 -0.577868,-0.34672 -0.828277,0 -0.828277,1.25205 v 8.07089 q 0,0.7127 0.17336,1.07868 0.17336,0.36599 0.635655,0.36599 z"
           style="font-style:normal;font-variant:normal;font-weight:normal;font-stretch:normal;font-family:Anton;-inkscape-font-specification:Anton;fill:#ffffff;stroke:#000000;stroke-width:0.48155648"
           id="path4101"
           inkscape:connector-curvature="0" />
        <path
           d="M 42.862558,205.62659 41.09043,189.08031 h 3.236059 l 0.924589,10.44014 0.924588,-10.44014 h 3.081962 l 0.886064,10.44014 0.886064,-10.44014 h 3.274584 l -1.810652,16.54628 h -3.968026 l -0.828277,-7.97458 -0.789753,7.97458 z"
           style="font-style:normal;font-variant:normal;font-weight:normal;font-stretch:normal;font-family:Anton;-inkscape-font-specification:Anton;fill:#ffffff;stroke:#000000;stroke-width:0.48155648"
           id="path4103"
           inkscape:connector-curvature="0" />
        <path
           d="m 59.818465,189.08031 h 4.372533 q 1.984013,0 2.831553,1.29057 0.847539,1.27131 0.847539,3.73688 0,2.46556 -0.751228,3.71761 -0.751228,1.25205 -2.696717,1.25205 h -1.348358 v 6.54917 h -3.255322 z m 3.447945,7.01146 q 0.59713,0 0.866801,-0.21189 0.288934,-0.23114 0.365983,-0.63565 0.09631,-0.42377 0.09631,-1.19426 0,-1.04016 -0.231147,-1.50246 -0.231148,-0.46229 -0.924589,-0.46229 h -0.365983 v 4.00655 z"
           style="font-style:normal;font-variant:normal;font-weight:normal;font-stretch:normal;font-family:Anton;-inkscape-font-specification:Anton;fill:#ffffff;stroke:#000000;stroke-width:0.48155648"
           id="path4105"
           inkscape:connector-curvature="0" />
        <path
           d="m 68.922892,205.62659 v -16.54628 h 3.313109 v 13.73399 h 3.40942 v 2.81229 z"
           style="font-style:normal;font-variant:normal;font-weight:normal;font-stretch:normal;font-family:Anton;-inkscape-font-specification:Anton;fill:#ffffff;stroke:#000000;stroke-width:0.48155648"
           id="path4107"
           inkscape:connector-curvature="0" />
        <path
           d="m 80.50884,205.78068 q -2.003275,0 -3.043437,-1.21352 -1.040162,-1.23278 -1.040162,-3.44794 v -7.87827 q 0,-2.13811 1.040162,-3.21679 1.040162,-1.09795 3.043437,-1.09795 2.003275,0 3.043437,1.09795 1.040162,1.07868 1.040162,3.21679 v 7.87827 q 0,2.23442 -1.040162,3.44794 -1.040162,1.21352 -3.043437,1.21352 z m 0,-3.04343 q 0.443032,0 0.59713,-0.38525 0.154098,-0.38524 0.154098,-1.07868 v -8.09015 q 0,-0.53935 -0.154098,-0.86681 -0.134836,-0.34672 -0.577868,-0.34672 -0.828277,0 -0.828277,1.25205 v 8.07089 q 0,0.7127 0.17336,1.07868 0.173361,0.36599 0.635655,0.36599 z"
           style="font-style:normal;font-variant:normal;font-weight:normal;font-stretch:normal;font-family:Anton;-inkscape-font-specification:Anton;fill:#ffffff;stroke:#000000;stroke-width:0.48155648"
           id="path4109"
           inkscape:connector-curvature="0" />
        <path
           d="m 87.218427,205.62659 -1.772128,-16.54628 h 3.23606 l 0.924588,10.44014 0.924589,-10.44014 h 3.081961 l 0.886064,10.44014 0.886064,-10.44014 h 3.274585 l -1.810653,16.54628 h -3.968026 l -0.828277,-7.97458 -0.789752,7.97458 z"
           style="font-style:normal;font-variant:normal;font-weight:normal;font-stretch:normal;font-family:Anton;-inkscape-font-specification:Anton;fill:#ffffff;stroke:#000000;stroke-width:0.48155648"
           id="path4111"
           inkscape:connector-curvature="0" />
      </g>
      <g
         aria-label="LLC"
         transform="scale(1.2061627,0.82907556)"
         style="font-style:normal;font-weight:normal;font-size:17.20453644px;line-height:1.25;font-family:sans-serif;letter-spacing:0px;word-spacing:0px;fill:#000000;fill-opacity:1;stroke:none;stroke-width:0.43011338"
         id="g4121">
        <path
           d="m 102.23503,199.59467 v -5.91148 h 1.18367 v 4.90673 h 1.21808 v 1.00475 z"
           style="font-style:normal;font-variant:normal;font-weight:normal;font-stretch:normal;font-size:6.881814px;font-family:Anton;-inkscape-font-specification:Anton;stroke-width:0.43011338"
           id="path4115"
           inkscape:connector-curvature="0" />
        <path
           d="m 104.96356,199.59467 v -5.91148 h 1.18367 v 4.90673 h 1.21808 v 1.00475 z"
           style="font-style:normal;font-variant:normal;font-weight:normal;font-stretch:normal;font-size:6.881814px;font-family:Anton;-inkscape-font-specification:Anton;stroke-width:0.43011338"
           id="path4117"
           inkscape:connector-curvature="0" />
        <path
           d="m 109.06845,199.64972 q -0.64689,0 -1.03915,-0.40603 -0.38538,-0.40602 -0.38538,-1.11485 v -2.7252 q 0,-0.88087 0.35097,-1.32819 0.35097,-0.44732 1.10109,-0.44732 0.65377,0 1.05292,0.35786 0.39914,0.35785 0.39914,1.03227 v 1.01851 h -1.17679 v -0.87399 q 0,-0.25463 -0.0619,-0.35098 -0.0619,-0.0963 -0.21334,-0.0963 -0.15828,0 -0.22022,0.11011 -0.055,0.11011 -0.055,0.32344 v 2.96607 q 0,0.23398 0.0688,0.34409 0.0688,0.10322 0.20645,0.10322 0.27527,0 0.27527,-0.44731 v -1.06669 h 1.19056 v 1.11486 q 0,1.48647 -1.49336,1.48647 z"
           style="font-style:normal;font-variant:normal;font-weight:normal;font-stretch:normal;font-size:6.881814px;font-family:Anton;-inkscape-font-specification:Anton;stroke-width:0.43011338"
           id="path4119"
           inkscape:connector-curvature="0" />
      </g>
      <path
         id="path4123"
         d="m 7.6371923,140.2671 -2.1395792,3.03941 8.4009109,6.79274 H 125.4199 l 8.40161,-6.79274 -2.13958,-3.03941 -7.68841,6.07954 H 15.324906 Z"
         style="opacity:1;fill:#dc030a;fill-opacity:1;stroke:none;stroke-width:2.40150285;stroke-linecap:butt;stroke-linejoin:miter;stroke-miterlimit:4;stroke-dasharray:none;stroke-dashoffset:0;stroke-opacity:1;paint-order:stroke fill markers"
         inkscape:connector-curvature="0" />
    </g>
  </g>
</svg>
